<mxfile host="app.diagrams.net" modified="2021-08-19T08:56:33.896Z" agent="5.0 (Windows NT 10.0; WOW64) AppleWebKit/537.36 (KHTML, like Gecko) Chrome/92.0.4515.159 Safari/537.36" etag="7njl-Ir8wLhAppjUBnuv" version="14.9.3" type="github">
  <diagram id="sFNgICzrHeStcKPJ0Uug" name="第 1 页">
    <mxGraphModel dx="1422" dy="757" grid="1" gridSize="10" guides="1" tooltips="1" connect="1" arrows="1" fold="1" page="1" pageScale="1" pageWidth="850" pageHeight="1100" math="0" shadow="0">
      <root>
        <mxCell id="0" />
        <mxCell id="1" parent="0" />
        <mxCell id="1gW-xUDaYkT_2D4jIWzP-1" value="" style="strokeWidth=2;html=1;shape=mxgraph.flowchart.database;whiteSpace=wrap;" parent="1" vertex="1">
          <mxGeometry x="160" y="530" width="60" height="60" as="geometry" />
        </mxCell>
        <mxCell id="1gW-xUDaYkT_2D4jIWzP-3" value="" style="rounded=0;whiteSpace=wrap;html=1;" parent="1" vertex="1">
          <mxGeometry x="140" y="400" width="120" height="60" as="geometry" />
        </mxCell>
        <mxCell id="1gW-xUDaYkT_2D4jIWzP-4" value="" style="rounded=0;whiteSpace=wrap;html=1;" parent="1" vertex="1">
          <mxGeometry x="365" y="400" width="120" height="60" as="geometry" />
        </mxCell>
        <mxCell id="_6sPfe0YhpV5K99HesYT-11" value="" style="verticalLabelPosition=bottom;html=1;verticalAlign=top;align=center;strokeColor=none;fillColor=#00BEF2;shape=mxgraph.azure.user;" vertex="1" parent="1">
          <mxGeometry x="280" y="660" width="47.5" height="50" as="geometry" />
        </mxCell>
        <mxCell id="_6sPfe0YhpV5K99HesYT-17" value="" style="shape=image;html=1;verticalAlign=top;verticalLabelPosition=bottom;labelBackgroundColor=#ffffff;imageAspect=0;aspect=fixed;image=https://cdn4.iconfinder.com/data/icons/redis-2/467/Redis_Logo-128.png" vertex="1" parent="1">
          <mxGeometry x="310" y="520" width="80" height="80" as="geometry" />
        </mxCell>
        <mxCell id="_6sPfe0YhpV5K99HesYT-18" value="" style="verticalLabelPosition=bottom;html=1;verticalAlign=top;align=center;strokeColor=none;fillColor=#00BEF2;shape=mxgraph.azure.user;" vertex="1" parent="1">
          <mxGeometry x="660" y="330" width="47.5" height="50" as="geometry" />
        </mxCell>
      </root>
    </mxGraphModel>
  </diagram>
</mxfile>
